<svg width="180" height="40" viewBox="0 0 180 40" fill="none" xmlns="http://www.w3.org/2000/svg">
    <g clip-path="url(#clip0_0_286)">
        <path d="M42.9521 31.2276V0.838623H47.754C50.5395 0.838623 52.5766 1.01767 53.8653 1.37575C55.6946 1.85779 57.1498 2.753 58.2307 4.06138C59.3116 5.36978 59.852 6.91229 59.852 8.68897C59.852 9.84581 59.6026 10.8995 59.1037 11.8498C58.6187 12.7862 57.8219 13.6677 56.7132 14.494C58.5702 15.3617 59.9283 16.4497 60.7875 17.7581C61.6467 19.0527 62.0763 20.5884 62.0763 22.365C62.0763 24.0728 61.6328 25.6291 60.7459 27.0339C59.859 28.4387 58.7157 29.4923 57.3161 30.1947C55.9164 30.8833 53.9831 31.2276 51.5164 31.2276H42.9521ZM48.7726 6.3545V12.7587H50.0406C51.4541 12.7587 52.5003 12.4626 53.1794 11.8704C53.8723 11.2782 54.2188 10.4725 54.2188 9.45329C54.2188 8.50301 53.8931 7.75242 53.2417 7.20152C52.5904 6.63684 51.5996 6.3545 50.2692 6.3545H48.7726ZM48.7726 17.9234V25.7117H50.2276C52.6389 25.7117 54.2604 25.4088 55.0919 24.8028C55.9371 24.1967 56.3598 23.3153 56.3598 22.1584C56.3598 20.8501 55.8679 19.8171 54.884 19.0596C53.9 18.3021 52.2648 17.9234 49.9782 17.9234H48.7726Z" fill="white"/>
        <path d="M67.0005 8.75073H72.7377V19.5759C72.7377 21.6831 72.8832 23.1499 73.1742 23.9763C73.4652 24.7888 73.9295 25.4223 74.567 25.8769C75.2183 26.3314 76.0152 26.5586 76.9575 26.5586C77.8998 26.5586 78.6967 26.3383 79.348 25.8975C80.0132 25.4431 80.5052 24.7819 80.8239 23.9143C81.0595 23.2669 81.1774 21.8828 81.1774 19.7619V8.75073H86.8726V18.2745C86.8726 22.1996 86.5612 24.8853 85.9377 26.3314C85.1755 28.0942 84.0526 29.4508 82.5704 30.4011C81.0874 31.3377 79.2025 31.8059 76.9159 31.8059C74.4353 31.8059 72.4259 31.255 70.8877 30.1532C69.3633 29.0514 68.2893 27.5158 67.6657 25.5463C67.2222 24.1829 67.0005 21.7038 67.0005 18.1092V8.75073Z" fill="white"/>
        <path d="M90.0752 8.75049H95.8741L101.757 22.8604L108.243 8.75049H114.063L99.886 39.4494H94.0247L98.6803 29.5539L90.0752 8.75049Z" fill="white"/>
        <path d="M117.247 8.75077H122.942V11.3331C123.913 10.2727 124.986 9.48072 126.164 8.95739C127.356 8.43405 128.652 8.17236 130.051 8.17236C131.465 8.17236 132.74 8.51668 133.877 9.20529C135.013 9.89396 135.927 10.8993 136.621 12.2214C137.521 10.8993 138.622 9.89396 139.925 9.20529C141.242 8.51668 142.677 8.17236 144.228 8.17236C145.836 8.17236 147.25 8.54422 148.469 9.28792C149.688 10.0317 150.562 11.0026 151.088 12.2008C151.629 13.399 151.899 15.3479 151.899 18.0472V31.2275H146.182V19.8239C146.182 17.276 145.864 15.5544 145.227 14.6592C144.588 13.7502 143.632 13.2957 142.358 13.2957C141.387 13.2957 140.514 13.5712 139.738 14.122C138.976 14.673 138.408 15.4373 138.034 16.4152C137.66 17.3793 137.473 18.9355 137.473 21.084V31.2275H131.757V20.3404C131.757 18.3296 131.604 16.8766 131.299 15.9814C131.008 15.0723 130.565 14.3976 129.969 13.9568C129.373 13.5161 128.652 13.2957 127.806 13.2957C126.864 13.2957 126.005 13.5781 125.229 14.1428C124.467 14.6936 123.892 15.4718 123.504 16.4772C123.129 17.4825 122.942 19.0664 122.942 21.2287V31.2275H117.247V8.75077Z" fill="white"/>
        <path d="M179.981 21.6212H161.751C162.014 23.2188 162.714 24.4928 163.851 25.4431C165 26.3796 166.463 26.8478 168.236 26.8478C170.357 26.8478 172.179 26.1111 173.704 24.6373L178.484 26.8685C177.293 28.5488 175.865 29.7952 174.202 30.6078C172.539 31.4065 170.565 31.8059 168.279 31.8059C164.73 31.8059 161.841 30.6973 159.61 28.4799C157.379 26.2488 156.263 23.4599 156.263 20.1131C156.263 16.6838 157.372 13.8398 159.589 11.581C161.82 9.30864 164.613 8.17236 167.966 8.17236C171.528 8.17236 174.425 9.30864 176.655 11.581C178.886 13.8398 180.002 16.8284 180.002 20.547L179.981 21.6212ZM174.286 17.1796C173.911 15.9263 173.17 14.9071 172.062 14.122C170.966 13.337 169.692 12.9446 168.236 12.9446C166.657 12.9446 165.271 13.3853 164.079 14.2667C163.331 14.8176 162.638 15.7886 162 17.1796H174.286Z" fill="white"/>
        <path d="M42.8105 39.5003H95.134L98.1065 34.1821H42.8105V39.5003Z" fill="white"/>
        <path d="M109.407 8.77271H120.109V13.5H109.407V8.77271Z" fill="white"/>
        <path d="M30.9204 0.5L19.0288 6.44512V33.317L30.9204 39.5V0.5Z" fill="#AB0000"/>
        <path d="M13.0827 13.5002L0.00195312 20.529L13.0827 27.8002V13.5002Z" fill="#AB0000"/>
    </g>
    <defs>
        <clipPath id="clip0_0_286">
            <rect width="180" height="39" fill="white" transform="translate(0 0.5)"/>
        </clipPath>
    </defs>
</svg>
